<svg width="58" height="52" viewBox="0 0 58 52" fill="none" xmlns="http://www.w3.org/2000/svg">
<g clip-path="url(#clip0_20_7)">
<path d="M14.9123 0.748253L21.7457 12.9966L15.4704 24.2198C15.1699 24.7558 15.0122 25.3591 15.0122 25.9726C15.0122 26.5861 15.1699 27.1895 15.4704 27.7255L21.7457 38.9764L14.9126 51.2247C13.6268 50.5915 12.559 49.5934 11.8445 48.3568L0.967421 29.5819C0.333677 28.4857 0.000183105 27.2436 0.000183105 25.9794C0.000183105 24.7152 0.333677 23.4731 0.967421 22.3769L11.8447 3.60218C12.5614 2.37064 13.6289 1.37745 14.9128 0.747803" fill="url(#paint0_linear_20_7)"/>
<path opacity="0.7" d="M15.4704 24.2338C15.1725 24.768 15.0162 25.3688 15.0162 25.9795C15.0162 26.5903 15.1725 27.191 15.4704 27.7252L21.7457 38.9761L14.9126 51.2247C13.6268 50.5915 12.559 49.5934 11.8445 48.3568L0.967422 29.5819C0.10286 28.0994 4.94178 26.3257 15.4706 24.2473L15.4704 24.2338Z" fill="url(#paint1_linear_20_7)"/>
<path opacity="0.5" d="M15.6097 1.98141L21.7457 12.9966L20.7277 14.7565L15.317 5.65315C13.7551 3.11754 11.3703 4.43397 8.38621 9.56058L8.83254 8.79837L11.8445 3.60242C12.5537 2.37491 13.6111 1.38215 14.8847 0.748047L15.5959 1.98141H15.6097Z" fill="url(#paint2_linear_20_7)"/>
<path d="M46.1499 3.60241L57.0271 22.3771C58.3242 24.594 58.3242 27.3653 57.0271 29.5821L46.1499 48.3566C45.5138 49.4513 44.5992 50.3604 43.4977 50.9927C42.3962 51.6251 41.1467 51.9584 39.8745 51.9593H28.9973L42.5242 27.7255C42.8221 27.1912 42.9784 26.5904 42.9784 25.9796C42.9784 25.3688 42.8221 24.7681 42.5242 24.2338L28.9973 0H39.8745C41.1467 0.000813099 42.3962 0.334105 43.4976 0.966418C44.5991 1.59873 45.5138 2.50781 46.1499 3.60241Z" fill="url(#paint3_linear_20_7)"/>
<path d="M39.3168 51.8762L28.5788 51.973L41.576 27.6145C41.8666 27.0729 42.0186 26.4685 42.0186 25.8548C42.0186 25.2411 41.8666 24.6367 41.576 24.0951L28.5786 0H31.0332L44.6716 23.9844C44.9947 24.551 45.1634 25.1916 45.161 25.8429C45.1585 26.4942 44.985 27.1336 44.6575 27.6978C41.7223 32.7665 38.8078 37.847 35.914 42.9392C33.2644 47.5669 34.4078 50.5458 39.3165 51.876" fill="url(#paint4_linear_20_7)"/>
<path d="M18.12 51.9593C17.0044 51.9593 15.8886 51.6959 14.9126 51.2247L28.3278 27.185C28.5336 26.8161 28.6416 26.4013 28.6416 25.9795C28.6416 25.5578 28.5336 25.1429 28.3278 24.7741L14.9126 0.74826C15.9098 0.257629 17.0072 0.00160149 18.12 0L28.9973 0L42.5242 24.2338C42.8221 24.768 42.9784 25.3688 42.9784 25.9795C42.9784 26.5903 42.8221 27.191 42.5242 27.7252L28.9973 51.9595L18.12 51.9593Z" fill="url(#paint5_linear_20_7)"/>
<path opacity="0.6" d="M41.576 24.7741L27.7421 0H28.9973L42.5242 24.2338C42.8221 24.768 42.9784 25.3688 42.9784 25.9795C42.9784 26.5903 42.8221 27.191 42.5242 27.7252L28.9973 51.9595H27.7421L41.576 27.1852C41.7818 26.8163 41.8898 26.4015 41.8898 25.9797C41.8898 25.558 41.7818 25.1429 41.576 24.7741Z" fill="url(#paint6_linear_20_7)"/>
<path opacity="0.6" d="M28.3278 24.774L14.9126 0.74825C15.3308 0.526518 15.8329 0.360163 16.3071 0.221497C19.2635 5.50073 23.6284 13.5094 29.4157 24.2338C29.7136 24.768 29.8699 25.3688 29.8699 25.9795C29.8699 26.5903 29.7136 27.191 29.4157 27.7252L16.0979 51.6824C15.6238 51.5437 15.3727 51.4467 14.9266 51.2389L28.314 27.1991C28.5198 26.8303 28.6278 26.4154 28.6278 25.9937C28.6278 25.5719 28.5198 25.1571 28.314 24.7882L28.3278 24.774Z" fill="url(#paint7_linear_20_7)"/>
</g>
<defs>
<linearGradient id="paint0_linear_20_7" x1="1087.28" y1="5048.44" x2="-1119.38" y2="1476.74" gradientUnits="userSpaceOnUse">
<stop stop-color="#EB6F07"/>
<stop offset="1" stop-color="#FAB743"/>
</linearGradient>
<linearGradient id="paint1_linear_20_7" x1="1691.87" y1="2283.37" x2="552.684" y2="1104.19" gradientUnits="userSpaceOnUse">
<stop stop-color="#D96504"/>
<stop offset="1" stop-color="#D96504" stop-opacity="0"/>
</linearGradient>
<linearGradient id="paint2_linear_20_7" x1="569.485" y1="122.622" x2="1170.97" y2="1095.04" gradientUnits="userSpaceOnUse">
<stop stop-color="#EB6F07"/>
<stop offset="1" stop-color="#EB720A" stop-opacity="0"/>
</linearGradient>
<linearGradient id="paint3_linear_20_7" x1="1479.13" y1="5195.93" x2="-494.406" y2="1057.03" gradientUnits="userSpaceOnUse">
<stop stop-color="#EE6F05"/>
<stop offset="1" stop-color="#FAB743"/>
</linearGradient>
<linearGradient id="paint4_linear_20_7" x1="-521.957" y1="5197.3" x2="2668.64" y2="4382.26" gradientUnits="userSpaceOnUse">
<stop stop-color="#D96504" stop-opacity="0.8"/>
<stop offset="0.498" stop-color="#D96504" stop-opacity="0.2"/>
<stop offset="1" stop-color="#D96504" stop-opacity="0"/>
</linearGradient>
<linearGradient id="paint5_linear_20_7" x1="1418.2" y1="5195.95" x2="-595.903" y2="1108.44" gradientUnits="userSpaceOnUse">
<stop stop-color="#FFA95F"/>
<stop offset="1" stop-color="#FFEBC8"/>
</linearGradient>
<linearGradient id="paint6_linear_20_7" x1="151.156" y1="57.1554" x2="1847.72" y2="325.597" gradientUnits="userSpaceOnUse">
<stop stop-color="white" stop-opacity="0.5"/>
<stop offset="1" stop-color="white" stop-opacity="0.1"/>
</linearGradient>
<linearGradient id="paint7_linear_20_7" x1="-190.003" y1="5362.44" x2="1907.08" y2="5051.52" gradientUnits="userSpaceOnUse">
<stop stop-color="white" stop-opacity="0.5"/>
<stop offset="1" stop-color="white" stop-opacity="0.1"/>
</linearGradient>
<clipPath id="clip0_20_7">
<rect width="58" height="52" fill="white"/>
</clipPath>
</defs>
</svg>
